<svg xmlns="http://www.w3.org/2000/svg" version="1.1" xmlns:xlink="http://www.w3.org/1999/xlink" xmlns:svgjs="http://svgjs.com/svgjs" width="1024" height="640" preserveAspectRatio="none" viewBox="0 0 1024 640"><g mask="url(&quot;#SvgjsMask1020&quot;)" fill="none"><rect width="1024" height="640" x="0" y="0" fill="url(#SvgjsLinearGradient1021)"></rect><path d="M1024 0L1001.26 0L1024 250.36z" fill="rgba(255, 255, 255, .1)"></path><path d="M1001.26 0L1024 250.36L1024 459.23L873.01 0z" fill="rgba(255, 255, 255, .075)"></path><path d="M873.01 0L1024 459.23L1024 465.32L711.19 0z" fill="rgba(255, 255, 255, .05)"></path><path d="M711.19 0L1024 465.32L1024 544.23L218.74000000000007 0z" fill="rgba(255, 255, 255, .025)"></path><path d="M0 640L301.17 640L0 346.33z" fill="rgba(0, 0, 0, .1)"></path><path d="M0 346.33L301.17 640L470.15 640L0 226.81z" fill="rgba(0, 0, 0, .075)"></path><path d="M0 226.81L470.15 640L802.7 640L0 86.37z" fill="rgba(0, 0, 0, .05)"></path><path d="M0 86.37L802.7 640L958.4000000000001 640L0 84.64z" fill="rgba(0, 0, 0, .025)"></path></g><defs><mask id="SvgjsMask1020"><rect width="1024" height="640" fill="#ffffff"></rect></mask><linearGradient x1="9.37%" y1="-15%" x2="90.63%" y2="115%" gradientUnits="userSpaceOnUse" id="SvgjsLinearGradient1021"><stop stop-color="rgba(14, 42, 71, 1)" offset="0.12"></stop><stop stop-color="rgba(0, 69, 158, 1)" offset="0.64"></stop></linearGradient></defs></svg>