<svg xmlns="http://www.w3.org/2000/svg" version="1.1" xmlns:xlink="http://www.w3.org/1999/xlink" xmlns:svgjs="http://svgjs.com/svgjs" width="1024" height="640" preserveAspectRatio="none" viewBox="0 0 1024 640"><g mask="url(&quot;#SvgjsMask1016&quot;)" fill="none"><rect width="1024" height="640" x="0" y="0" fill="url(#SvgjsLinearGradient1017)"></rect><path d="M -428.4158457986482,266 C -360.02,301.2 -223.22,460.6 -86.41584579864818,442 C 50.38,423.4 118.78,179.2 255.58415420135182,173 C 392.38,166.8 460.78,414.2 597.5841542013518,411 C 734.38,407.8 854.3,171.8 939.5841542013518,157 C 1024.87,142.2 1007.12,301 1024,337" stroke="rgba(51, 121, 194, 0.58)" stroke-width="2"></path><path d="M -411.3953973252809,247 C -343,304.6 -206.2,523.6 -69.39539732528088,535 C 67.4,546.4 135.8,321.8 272.6046026747191,304 C 409.4,286.2 477.8,450.2 614.6046026747191,446 C 751.4,441.8 874.73,306.2 956.6046026747191,283 C 1038.48,259.8 1010.52,320.6 1024,330" stroke="rgba(51, 121, 194, 0.58)" stroke-width="2"></path><path d="M -537.5587145015924,236 C -469.16,272.6 -332.36,443.2 -195.5587145015924,419 C -58.76,394.8 9.64,94.2 146.4412854984076,115 C 283.24,135.8 351.64,508.2 488.44128549840764,523 C 625.24,537.8 723.33,213 830.4412854984076,189 C 937.55,165 985.29,360.2 1024,403" stroke="rgba(51, 121, 194, 0.58)" stroke-width="2"></path><path d="M -479.04107352414144,193 C -410.64,222.2 -273.84,356 -137.04107352414147,339 C -0.24,322 68.16,109.4 204.95892647585853,108 C 341.76,106.6 410.16,307.2 546.9589264758586,332 C 683.76,356.8 793.55,202.6 888.9589264758586,232 C 984.37,261.4 996.99,429.6 1024,479" stroke="rgba(51, 121, 194, 0.58)" stroke-width="2"></path><path d="M -347.3176828030713,112 C -278.92,177 -142.12,412 -5.317682803071316,437 C 131.48,462 199.88,246 336.6823171969287,237 C 473.48,228 541.88,402 678.6823171969287,392 C 815.48,382 951.62,160.4 1020.6823171969287,187 C 1089.75,213.6 1023.34,457.4 1024,525" stroke="rgba(51, 121, 194, 0.58)" stroke-width="2"></path></g><defs><mask id="SvgjsMask1016"><rect width="1024" height="640" fill="#ffffff"></rect></mask><linearGradient x1="50%" y1="0%" x2="50%" y2="100%" gradientUnits="userSpaceOnUse" id="SvgjsLinearGradient1017"><stop stop-color="#0e2a47" offset="0"></stop><stop stop-color="rgba(141, 133, 212, 1)" offset="1"></stop></linearGradient></defs></svg>