<svg xmlns="http://www.w3.org/2000/svg" version="1.1" xmlns:xlink="http://www.w3.org/1999/xlink" xmlns:svgjs="http://svgjs.com/svgjs" width="1024" height="640" preserveAspectRatio="none" viewBox="0 0 1024 640"><g mask="url(&quot;#SvgjsMask1040&quot;)" fill="none"><rect width="1024" height="640" x="0" y="0" fill="url(#SvgjsLinearGradient1041)"></rect><path d="M10 640L650 0L851 0L211 640z" fill="url(#SvgjsLinearGradient1042)"></path><path d="M346.92 640L986.9200000000001 0L1433.92 0L793.9200000000001 640z" fill="url(#SvgjsLinearGradient1042)"></path><path d="M1022 640L382 0L284.5 0L924.5 640z" fill="url(#SvgjsLinearGradient1043)"></path><path d="M672.0799999999999 640L32.07999999999993 0L-425.4200000000001 0L214.57999999999993 640z" fill="url(#SvgjsLinearGradient1043)"></path><path d="M523.9608887795466 640L1024 139.96088877954656L1024 640z" fill="url(#SvgjsLinearGradient1042)"></path><path d="M0 640L500.03911122045344 640L 0 139.96088877954656z" fill="url(#SvgjsLinearGradient1043)"></path></g><defs><mask id="SvgjsMask1040"><rect width="1024" height="640" fill="#ffffff"></rect></mask><linearGradient x1="50%" y1="0%" x2="50%" y2="100%" gradientUnits="userSpaceOnUse" id="SvgjsLinearGradient1041"><stop stop-color="#0e2a47" offset="0"></stop><stop stop-color="rgba(141, 133, 212, 1)" offset="1"></stop></linearGradient><linearGradient x1="0%" y1="100%" x2="100%" y2="0%" id="SvgjsLinearGradient1042"><stop stop-color="rgba(15, 70, 185, 0.2)" offset="0"></stop><stop stop-opacity="0" stop-color="rgba(15, 70, 185, 0.2)" offset="0.66"></stop></linearGradient><linearGradient x1="100%" y1="100%" x2="0%" y2="0%" id="SvgjsLinearGradient1043"><stop stop-color="rgba(15, 70, 185, 0.2)" offset="0"></stop><stop stop-opacity="0" stop-color="rgba(15, 70, 185, 0.2)" offset="0.66"></stop></linearGradient></defs></svg>